<mxfile host="65bd71144e">
    <diagram id="0BOTIzh6_wVNLvswh6f4" name="Page-1">
        <mxGraphModel dx="1440" dy="1400" grid="1" gridSize="10" guides="1" tooltips="1" connect="1" arrows="1" fold="1" page="1" pageScale="1" pageWidth="850" pageHeight="1100" math="0" shadow="0">
            <root>
                <mxCell id="0"/>
                <mxCell id="1" parent="0"/>
                <mxCell id="2" value="" style="image;html=1;image=img/lib/clip_art/telecommunication/iPhone_128x128.png" vertex="1" parent="1">
                    <mxGeometry x="10" y="120" width="80" height="80" as="geometry"/>
                </mxCell>
                <mxCell id="3" value="" style="shape=singleArrow;direction=south;whiteSpace=wrap;html=1;" vertex="1" parent="1">
                    <mxGeometry x="25" y="210" width="50" height="70" as="geometry"/>
                </mxCell>
                <UserObject label="&lt;font style=&quot;font-size: 16px;&quot;&gt;Raw Events&lt;/font&gt;" treeRoot="1" id="4">
                    <mxCell style="whiteSpace=wrap;html=1;align=center;treeFolding=1;treeMoving=1;newEdgeStyle={&quot;edgeStyle&quot;:&quot;elbowEdgeStyle&quot;,&quot;startArrow&quot;:&quot;none&quot;,&quot;endArrow&quot;:&quot;none&quot;};" vertex="1" parent="1">
                        <mxGeometry x="10" y="290" width="100" height="40" as="geometry"/>
                    </mxCell>
                </UserObject>
                <mxCell id="5" value="" style="aspect=fixed;perimeter=ellipsePerimeter;html=1;align=center;shadow=0;dashed=0;spacingTop=3;image;image=img/lib/active_directory/database_server.svg;fontSize=16;" vertex="1" parent="1">
                    <mxGeometry x="17.200000000000003" y="360" width="65.6" height="80" as="geometry"/>
                </mxCell>
                <UserObject label="&lt;font style=&quot;font-size: 16px;&quot;&gt;Postgres&lt;/font&gt;" treeRoot="1" id="6">
                    <mxCell style="whiteSpace=wrap;html=1;align=center;treeFolding=1;treeMoving=1;newEdgeStyle={&quot;edgeStyle&quot;:&quot;elbowEdgeStyle&quot;,&quot;startArrow&quot;:&quot;none&quot;,&quot;endArrow&quot;:&quot;none&quot;};" vertex="1" parent="1">
                        <mxGeometry x="10" y="450" width="100" height="40" as="geometry"/>
                    </mxCell>
                </UserObject>
                <mxCell id="10" value="" style="edgeStyle=none;html=1;fontSize=16;" edge="1" parent="1" source="7">
                    <mxGeometry relative="1" as="geometry">
                        <mxPoint x="210" y="310" as="targetPoint"/>
                    </mxGeometry>
                </mxCell>
                <mxCell id="7" value="" style="shape=curlyBracket;whiteSpace=wrap;html=1;rounded=1;flipH=1;labelPosition=right;verticalLabelPosition=middle;align=left;verticalAlign=middle;fontSize=16;" vertex="1" parent="1">
                    <mxGeometry x="130" y="150" width="20" height="320" as="geometry"/>
                </mxCell>
                <mxCell id="8" value="Container" style="swimlane;fontSize=16;" vertex="1" parent="1">
                    <mxGeometry x="210" y="90" width="490" height="430" as="geometry"/>
                </mxCell>
                <mxCell id="15" value="" style="edgeStyle=none;html=1;fontSize=16;" edge="1" parent="8" source="11" target="13">
                    <mxGeometry relative="1" as="geometry"/>
                </mxCell>
                <mxCell id="11" value="" style="aspect=fixed;html=1;points=[];align=center;image;fontSize=12;image=img/lib/azure2/analytics/Stream_Analytics_Jobs.svg;" vertex="1" parent="8">
                    <mxGeometry x="10" y="180" width="117.24" height="100" as="geometry"/>
                </mxCell>
                <UserObject label="&lt;font style=&quot;font-size: 16px;&quot;&gt;Data Stream&lt;/font&gt;" treeRoot="1" id="12">
                    <mxCell style="whiteSpace=wrap;html=1;align=center;treeFolding=1;treeMoving=1;newEdgeStyle={&quot;edgeStyle&quot;:&quot;elbowEdgeStyle&quot;,&quot;startArrow&quot;:&quot;none&quot;,&quot;endArrow&quot;:&quot;none&quot;};" vertex="1" parent="8">
                        <mxGeometry x="27.24000000000001" y="290" width="100" height="40" as="geometry"/>
                    </mxCell>
                </UserObject>
                <mxCell id="18" value="" style="edgeStyle=none;html=1;fontSize=16;" edge="1" parent="8" source="13" target="16">
                    <mxGeometry relative="1" as="geometry"/>
                </mxCell>
                <mxCell id="13" value="" style="shape=mxgraph.signs.nature.snowflake;html=1;pointerEvents=1;fillColor=none;verticalLabelPosition=bottom;verticalAlign=top;align=center;fontSize=16;" vertex="1" parent="8">
                    <mxGeometry x="200" y="182" width="87" height="98" as="geometry"/>
                </mxCell>
                <UserObject label="&lt;font style=&quot;font-size: 16px;&quot;&gt;Snowflake Data Warehouse&lt;/font&gt;" treeRoot="1" id="14">
                    <mxCell style="whiteSpace=wrap;html=1;align=center;treeFolding=1;treeMoving=1;newEdgeStyle={&quot;edgeStyle&quot;:&quot;elbowEdgeStyle&quot;,&quot;startArrow&quot;:&quot;none&quot;,&quot;endArrow&quot;:&quot;none&quot;};" vertex="1" parent="8">
                        <mxGeometry x="193.5" y="290" width="100" height="60" as="geometry"/>
                    </mxCell>
                </UserObject>
                <mxCell id="16" value="" style="sketch=0;points=[[0,0,0],[0.25,0,0],[0.5,0,0],[0.75,0,0],[1,0,0],[0,1,0],[0.25,1,0],[0.5,1,0],[0.75,1,0],[1,1,0],[0,0.25,0],[0,0.5,0],[0,0.75,0],[1,0.25,0],[1,0.5,0],[1,0.75,0]];outlineConnect=0;fontColor=#232F3E;gradientColor=#945DF2;gradientDirection=north;fillColor=#5A30B5;strokeColor=#ffffff;dashed=0;verticalLabelPosition=bottom;verticalAlign=top;align=center;html=1;fontSize=12;fontStyle=0;aspect=fixed;shape=mxgraph.aws4.resourceIcon;resIcon=mxgraph.aws4.data_pipeline;" vertex="1" parent="8">
                    <mxGeometry x="400" y="191" width="78" height="78" as="geometry"/>
                </mxCell>
                <UserObject label="&lt;font style=&quot;font-size: 16px;&quot;&gt;ETL Data Pipeline&lt;/font&gt;" treeRoot="1" id="19">
                    <mxCell style="whiteSpace=wrap;html=1;align=center;treeFolding=1;treeMoving=1;newEdgeStyle={&quot;edgeStyle&quot;:&quot;elbowEdgeStyle&quot;,&quot;startArrow&quot;:&quot;none&quot;,&quot;endArrow&quot;:&quot;none&quot;};" vertex="1" parent="8">
                        <mxGeometry x="390" y="280" width="100" height="60" as="geometry"/>
                    </mxCell>
                </UserObject>
            </root>
        </mxGraphModel>
    </diagram>
</mxfile>